<svg width="1280" height="720" xmlns="http://www.w3.org/2000/svg" xmlns:xlink="http://www.w3.org/1999/xlink" overflow="hidden"><defs><filter id="fx0" x="-10%" y="-10%" width="120%" height="120%" filterUnits="userSpaceOnUse" primitiveUnits="userSpaceOnUse"><feComponentTransfer color-interpolation-filters="sRGB"><feFuncR type="discrete" tableValues="0 0"/><feFuncG type="discrete" tableValues="0 0"/><feFuncB type="discrete" tableValues="0 0"/><feFuncA type="linear" slope="0.4" intercept="0"/></feComponentTransfer><feGaussianBlur stdDeviation="1.77778 1.77778"/></filter><filter id="fx1" x="-10%" y="-10%" width="120%" height="120%" filterUnits="userSpaceOnUse" primitiveUnits="userSpaceOnUse"><feComponentTransfer color-interpolation-filters="sRGB"><feFuncR type="discrete" tableValues="0 0"/><feFuncG type="discrete" tableValues="0 0"/><feFuncB type="discrete" tableValues="0 0"/><feFuncA type="linear" slope="0.4" intercept="0"/></feComponentTransfer><feGaussianBlur stdDeviation="1.77778 1.77778"/></filter><filter id="fx2" x="-10%" y="-10%" width="120%" height="120%" filterUnits="userSpaceOnUse" primitiveUnits="userSpaceOnUse"><feComponentTransfer color-interpolation-filters="sRGB"><feFuncR type="discrete" tableValues="0 0"/><feFuncG type="discrete" tableValues="0 0"/><feFuncB type="discrete" tableValues="0 0"/><feFuncA type="linear" slope="0.4" intercept="0"/></feComponentTransfer><feGaussianBlur stdDeviation="1.77778 1.77778"/></filter><filter id="fx3" x="-10%" y="-10%" width="120%" height="120%" filterUnits="userSpaceOnUse" primitiveUnits="userSpaceOnUse"><feComponentTransfer color-interpolation-filters="sRGB"><feFuncR type="discrete" tableValues="0 0"/><feFuncG type="discrete" tableValues="0 0"/><feFuncB type="discrete" tableValues="0 0"/><feFuncA type="linear" slope="0.4" intercept="0"/></feComponentTransfer><feGaussianBlur stdDeviation="1.77778 1.77778"/></filter><filter id="fx4" x="-10%" y="-10%" width="120%" height="120%" filterUnits="userSpaceOnUse" primitiveUnits="userSpaceOnUse"><feComponentTransfer color-interpolation-filters="sRGB"><feFuncR type="discrete" tableValues="0 0"/><feFuncG type="discrete" tableValues="0 0"/><feFuncB type="discrete" tableValues="0 0"/><feFuncA type="linear" slope="0.4" intercept="0"/></feComponentTransfer><feGaussianBlur stdDeviation="1.77778 1.77778"/></filter><filter id="fx5" x="-10%" y="-10%" width="120%" height="120%" filterUnits="userSpaceOnUse" primitiveUnits="userSpaceOnUse"><feComponentTransfer color-interpolation-filters="sRGB"><feFuncR type="discrete" tableValues="0 0"/><feFuncG type="discrete" tableValues="0 0"/><feFuncB type="discrete" tableValues="0 0"/><feFuncA type="linear" slope="0.4" intercept="0"/></feComponentTransfer><feGaussianBlur stdDeviation="1.77778 1.77778"/></filter><filter id="fx6" x="-10%" y="-10%" width="120%" height="120%" filterUnits="userSpaceOnUse" primitiveUnits="userSpaceOnUse"><feComponentTransfer color-interpolation-filters="sRGB"><feFuncR type="discrete" tableValues="0 0"/><feFuncG type="discrete" tableValues="0 0"/><feFuncB type="discrete" tableValues="0 0"/><feFuncA type="linear" slope="0.4" intercept="0"/></feComponentTransfer><feGaussianBlur stdDeviation="1.77778 1.77778"/></filter><filter id="fx7" x="-10%" y="-10%" width="120%" height="120%" filterUnits="userSpaceOnUse" primitiveUnits="userSpaceOnUse"><feComponentTransfer color-interpolation-filters="sRGB"><feFuncR type="discrete" tableValues="0 0"/><feFuncG type="discrete" tableValues="0 0"/><feFuncB type="discrete" tableValues="0 0"/><feFuncA type="linear" slope="0.4" intercept="0"/></feComponentTransfer><feGaussianBlur stdDeviation="1.77778 1.77778"/></filter><clipPath id="clip8"><rect x="0" y="0" width="1280" height="720"/></clipPath><linearGradient x1="691.456" y1="-70.3681" x2="588.544" y2="790.368" gradientUnits="userSpaceOnUse" spreadMethod="reflect" id="fill9"><stop offset="0" stop-color="#5275AD"/><stop offset="0.1" stop-color="#5275AD"/><stop offset="1" stop-color="#1C204C"/></linearGradient><clipPath id="clip10"><path d="M54.4892 40C39.8596 40 28 51.8597 28 66.4893L28 653.511C28 668.14 39.8596 680 54.4892 680L1225.51 680C1240.14 680 1252 668.14 1252 653.511L1252 66.4893C1252 51.8597 1240.14 40 1225.51 40ZM1.90735e-05 1.07288e-05 1280 1.07288e-05 1280 720 1.90735e-05 720Z" fill-rule="evenodd" clip-rule="evenodd"/></clipPath><linearGradient x1="55" y1="167.5" x2="320" y2="167.5" gradientUnits="userSpaceOnUse" spreadMethod="reflect" id="fill11"><stop offset="0" stop-color="#ACCBF9"/><stop offset="0.5" stop-color="#5A7CAE"/><stop offset="1" stop-color="#072C62"/></linearGradient><linearGradient x1="359" y1="167.5" x2="623" y2="167.5" gradientUnits="userSpaceOnUse" spreadMethod="reflect" id="fill12"><stop offset="0" stop-color="#ACCBF9"/><stop offset="0.5" stop-color="#5A7CAE"/><stop offset="1" stop-color="#072C62"/></linearGradient><linearGradient x1="958" y1="167.5" x2="1222" y2="167.5" gradientUnits="userSpaceOnUse" spreadMethod="reflect" id="fill13"><stop offset="0" stop-color="#ACCBF9"/><stop offset="0.5" stop-color="#5A7CAE"/><stop offset="1" stop-color="#072C62"/></linearGradient><linearGradient x1="658" y1="167.5" x2="923" y2="167.5" gradientUnits="userSpaceOnUse" spreadMethod="reflect" id="fill14"><stop offset="0" stop-color="#ACCBF9"/><stop offset="0.5" stop-color="#5A7CAE"/><stop offset="1" stop-color="#072C62"/></linearGradient></defs><g clip-path="url(#clip8)"><rect x="0" y="0" width="1280" height="720" fill="url(#fill9)"/><path d="M0 0 400 400" stroke="#FFFFFF" stroke-width="1.33333" stroke-linecap="round" stroke-linejoin="round" stroke-miterlimit="10" fill="none" fill-rule="evenodd" transform="matrix(-1 0 0 1 1264.5 1.50005)"/><path d="M0 0 638.389 638.389" stroke="#FFFFFF" stroke-width="1.33333" stroke-linecap="round" stroke-linejoin="round" stroke-miterlimit="10" fill="none" fill-rule="evenodd" transform="matrix(-1 0 0 1 1279.89 10.5001)"/><path d="M0 0 520 520" stroke="#FFFFFF" stroke-width="1.33333" stroke-linecap="round" stroke-linejoin="round" stroke-miterlimit="10" fill="none" fill-rule="evenodd" transform="matrix(-1 0 0 1 1280.5 24.5001)"/><path d="M0 0 509.5 509.5" stroke="#FFFFFF" stroke-width="3.33333" stroke-linecap="round" stroke-linejoin="round" stroke-miterlimit="10" fill="none" fill-rule="evenodd" transform="matrix(-1 0 0 1 1280 3.50005)"/><path d="M0 0 456 456" stroke="#FFFFFF" stroke-width="3.33333" stroke-linecap="round" stroke-linejoin="round" stroke-miterlimit="10" fill="none" fill-rule="evenodd" transform="matrix(-1 0 0 1 1280.5 64.5001)"/><g filter="url(#fx0)" transform="translate(8 26)"><g><path d="M7 34.4005C7 19.2676 19.2676 7 34.4005 7L1229.6 7C1244.73 7 1257 19.2676 1257 34.4005L1257 641.599C1257 656.732 1244.73 669 1229.6 669L34.4005 669C19.2676 669 7 656.732 7 641.599Z" fill="#D9D9D9" fill-rule="evenodd" fill-opacity="0.25098"/></g></g><path d="M15 56.4005C15 41.2676 27.2676 29 42.4005 29L1237.6 29C1252.73 29 1265 41.2676 1265 56.4005L1265 663.599C1265 678.732 1252.73 691 1237.6 691L42.4005 691C27.2676 691 15 678.732 15 663.599Z" fill="#D9D9D9" fill-rule="evenodd" fill-opacity="0.25098"/><g clip-path="url(#clip10)"><g filter="url(#fx1)" transform="translate(17 33)"><g><path d="M11 37.4893C11 22.8596 22.8596 11 37.4892 11L1208.51 11C1223.14 11 1235 22.8596 1235 37.4893L1235 624.511C1235 639.14 1223.14 651 1208.51 651L37.4892 651C22.8596 651 11 639.14 11 624.511Z" stroke="#FFFFFF" stroke-width="8" stroke-linecap="round" stroke-linejoin="round" stroke-miterlimit="10" fill="#DAE0EF" fill-rule="evenodd"/></g></g></g><path d="M28 66.4893C28 51.8596 39.8596 40 54.4892 40L1225.51 40C1240.14 40 1252 51.8596 1252 66.4893L1252 653.511C1252 668.14 1240.14 680 1225.51 680L54.4892 680C39.8596 680 28 668.14 28 653.511Z" stroke="#FFFFFF" stroke-width="8" stroke-linecap="round" stroke-linejoin="round" stroke-miterlimit="10" fill="#DAE0EF" fill-rule="evenodd"/><g><g><g><path d="M98.6146 85.8633C98.554 84.2581 97.8107 82.7552 96.5719 81.7326 94.8411 80.2635 92.4688 78.9993 89.1563 77.7703 90.32 77.6438 91.4611 77.3596 92.5483 76.9257 92.5483 76.9257 91.3 76.1787 90.526 73.1218 90.0352 71.2011 91.9134 66.3991 91.9294 63.0187 91.9294 60.3135 91.1609 59.1027 89.71 58.2807 88.872 57.8059 86.9408 58.2437 86.9408 58.2437 86.9408 58.2437 85.9426 56.3528 82.6042 55.3121 79.8592 54.5647 76.9297 54.9391 74.4609 56.3528 72.3961 57.6867 71.398 59.1535 71.3499 64.2012 71.3074 68.8266 71.9423 72.9352 71.6492 74.8719 71.5138 75.9441 71.1059 76.9636 70.4644 77.8333 71.4801 77.9183 72.5001 77.9402 73.5185 77.899 70.3832 79.0882 68.1081 80.3149 66.437 81.7326 65.1918 82.76 64.447 84.2721 64.3915 85.8854L64.3959 95.5855 64.8873 95.9135C67.9237 97.9379 75.5601 98.4177 78.702 98.5298L80.1198 98.5833 76.4998 81.8552C78.1219 82.3477 79.8098 82.5898 81.505 82.5729 83.1994 82.5897 84.8865 82.3477 86.5079 81.8552L82.8841 98.5889 84.2957 98.5452C87.5343 98.4459 95.3683 97.9876 98.179 95.8792L98.6207 95.548ZM74.88 68.2188 74.88 65.4258C75.1492 65.4095 75.4173 65.3773 75.6827 65.3291 77.5348 65.0852 79.3423 64.5767 81.05 63.8192 82.9696 62.8542 84.0705 62.3805 85.6633 60.9379 85.8737 60.7313 86.2117 60.7345 86.4182 60.9449 86.4965 61.0246 86.5477 61.1267 86.5648 61.2371 86.6918 62.1144 87.0219 64.0461 87.4614 64.8168 87.6595 65.1957 87.8831 65.5607 88.1305 65.9094L88.1305 68.2188C88.1265 71.876 85.1627 74.8398 81.5055 74.8438L81.5055 74.8438C77.8481 74.8401 74.8839 71.8762 74.88 68.2188ZM81.505 80.3646C79.6106 80.4194 77.7282 80.0471 75.9974 79.2753L76.476 79.0788C77.513 78.6556 78.1899 77.646 78.1875 76.5259L78.1875 76.4017C80.3118 77.2693 82.6915 77.2693 84.8158 76.4017L84.8158 76.5243C84.813 77.6447 85.49 78.6548 86.5273 79.0782L87.0081 79.2759C85.2786 80.0469 83.3978 80.4189 81.505 80.3646Z"/></g></g></g><g><g><g><path d="M112.814 83.125 116.193 83.125 117.264 79.8125 111.743 79.8125 112.814 83.125Z"/><path d="M112.897 84.2292 112.146 95.1218 114.503 97.4792 116.861 95.1218 116.11 84.2292 112.897 84.2292Z"/><path d="M132.167 85.8633C132.136 84.2437 131.379 82.7236 130.105 81.7227 128.043 80.0344 125.618 78.9921 123.074 78.0823L120.366 76.9709C120.159 76.8858 120.024 76.6841 120.024 76.4603L120.024 75.1054C122.068 73.4692 123.279 71.0086 123.328 68.3904L124.735 65.9773C124.946 65.4798 125.03 64.938 124.981 64.4 124.661 60.7819 122.467 57.5966 119.2 56.0083 118.937 55.8849 118.628 55.9125 118.391 56.0806L117.833 56.4671 117.217 55.6241C117.027 55.3582 116.741 55.1763 116.42 55.1167 115.846 55.0176 115.264 54.9681 114.681 54.9688 109.709 54.9694 105.44 58.5075 104.517 63.3935L104.495 63.5139C104.227 64.9475 103.672 66.3122 102.863 67.5259L105.672 67.5259 105.672 68.2188C105.672 70.8961 106.889 73.4284 108.979 75.1016L108.979 76.4575C108.979 76.6814 108.844 76.8831 108.637 76.9682L105.932 78.0773C103.385 78.9877 100.963 80.0284 98.9125 81.705 97.6245 82.7134 96.8615 84.2499 96.8366 85.8854L96.8366 95.5469 97.2783 95.8781C99.6992 97.6939 106.102 98.2791 109.7 98.4663L110.999 98.5336 108.851 79.2659 109.475 79.0098C110.512 78.587 111.189 77.5776 111.188 76.4575L111.188 76.4023C113.312 77.2698 115.692 77.2698 117.816 76.4023L117.816 76.4575C117.813 77.5777 118.49 78.5876 119.527 79.0109L120.152 79.267 118.002 98.5347 119.301 98.4674C122.902 98.2802 129.305 97.6945 131.726 95.8792L132.168 95.548ZM107.881 68.2188 107.881 67.5259 111.728 67.5259C117.403 67.5259 116.632 63.0027 119.115 62.3551 119.797 62.228 120.502 62.3187 121.131 62.6146L121.131 68.2188C121.131 71.8776 118.164 74.8438 114.506 74.8438 110.847 74.8438 107.881 71.8776 107.881 68.2188ZM127.753 88.6458 122.784 88.6458 122.784 87.5417 127.753 87.5417Z"/></g></g></g><path d="M55 133.834C55 124.537 62.5367 117 71.8338 117L303.166 117C312.463 117 320 124.537 320 133.834L320 201.166C320 210.463 312.463 218 303.166 218L71.8338 218C62.5367 218 55 210.463 55 201.166Z" fill="url(#fill11)" fill-rule="evenodd"/><path d="M359 133.834C359 124.537 366.537 117 375.834 117L606.166 117C615.463 117 623 124.537 623 133.834L623 201.166C623 210.463 615.463 218 606.166 218L375.834 218C366.537 218 359 210.463 359 201.166Z" fill="url(#fill12)" fill-rule="evenodd"/><path d="M958 133.834C958 124.537 965.537 117 974.834 117L1205.17 117C1214.46 117 1222 124.537 1222 133.834L1222 201.166C1222 210.463 1214.46 218 1205.17 218L974.834 218C965.537 218 958 210.463 958 201.166Z" fill="url(#fill13)" fill-rule="evenodd"/><path d="M658 133.834C658 124.537 665.537 117 674.834 117L906.166 117C915.463 117 923 124.537 923 133.834L923 201.166C923 210.463 915.463 218 906.166 218L674.834 218C665.537 218 658 210.463 658 201.166Z" fill="url(#fill14)" fill-rule="evenodd"/><g><g><g><path d="M304.75 156.188 288.812 156.188 283.5 140.25 278.188 156.188 262.25 156.188 274.469 166.812 269.688 182.75 283.5 173.188 297.312 182.75 292.531 166.812Z" fill="#FFFFFF"/></g></g></g><g><g><g><path d="M569.281 154.929C569.281 157.984 566.805 160.46 563.75 160.46 560.695 160.46 558.219 157.984 558.219 154.929 558.219 151.874 560.695 149.398 563.75 149.398 566.805 149.398 569.281 151.874 569.281 154.929Z" fill="#FFFFFF"/><path d="M598.781 154.929C598.781 157.984 596.305 160.46 593.25 160.46 590.195 160.46 587.719 157.984 587.719 154.929 587.719 151.874 590.195 149.398 593.25 149.398 596.305 149.398 598.781 151.874 598.781 154.929Z" fill="#FFFFFF"/><path d="M589.562 181.602 589.562 176.071C589.562 175.21 589.194 174.35 588.456 173.858 586.981 172.629 585.015 171.769 583.048 171.277 581.696 170.908 580.098 170.54 578.5 170.54 577.025 170.54 575.427 170.785 573.952 171.277 571.985 171.769 570.142 172.752 568.544 173.858 567.806 174.473 567.438 175.21 567.438 176.071L567.438 181.602 589.562 181.602Z" fill="#FFFFFF"/><path d="M584.031 163.533C584.031 166.588 581.555 169.065 578.5 169.065 575.445 169.065 572.969 166.588 572.969 163.533 572.969 160.479 575.445 158.002 578.5 158.002 581.555 158.002 584.031 160.479 584.031 163.533Z" fill="#FFFFFF"/><path d="M603.206 165.254C601.731 164.025 599.765 163.165 597.798 162.673 596.446 162.304 594.848 161.935 593.25 161.935 591.775 161.935 590.177 162.181 588.702 162.673 587.965 162.919 587.227 163.165 586.49 163.533L586.49 163.656C586.49 165.746 585.629 167.712 584.277 169.065 586.612 169.802 588.456 170.785 589.931 171.892 590.3 172.26 590.669 172.506 590.915 172.998L604.312 172.998 604.312 167.467C604.312 166.606 603.944 165.746 603.206 165.254Z" fill="#FFFFFF"/><path d="M567.069 171.892 567.069 171.892C568.79 170.663 570.756 169.679 572.723 169.065 571.371 167.59 570.51 165.746 570.51 163.656 570.51 163.533 570.51 163.533 570.51 163.41 569.773 163.165 569.035 162.796 568.298 162.673 566.946 162.304 565.348 161.935 563.75 161.935 562.275 161.935 560.677 162.181 559.202 162.673 557.235 163.288 555.392 164.148 553.794 165.254 553.056 165.746 552.688 166.606 552.688 167.467L552.688 172.998 565.963 172.998C566.331 172.506 566.577 172.26 567.069 171.892Z" fill="#FFFFFF"/></g></g></g><g><g><g><path d="M27.9918 5.83042C15.7563 5.83042 5.83742 15.7493 5.83742 27.9848 5.83742 40.2204 15.7563 50.1393 27.9918 50.1393 40.2274 50.1393 50.1462 40.2204 50.1462 27.9848 50.1517 15.7548 40.2417 5.8359 28.0117 5.83042 28.0051 5.83041 27.9984 5.83041 27.9918 5.83042ZM27.9918 39.0833C27.9918 39.0833 17.2177 30.8443 17.2177 24.1903 17.2177 19.7534 23.9989 15.0004 27.9918 22.9227 31.9847 15.0004 38.766 19.7534 38.766 24.1903 38.766 30.8443 27.9918 39.0833 27.9918 39.0833Z" fill="#FFFFFF" transform="matrix(1.01786 0 0 1 855 136)"/></g></g></g><g><g><g><path d="M10.4167 4.27083 13.5417 4.27083 13.5417 45.8333 10.4167 45.8333Z" fill="#FFFFFF" transform="matrix(1.02 0 0 1 1162 136)"/><path d="M34.8958 19.7917 20.3125 19.7917 20.3125 16.6667 34.8958 16.6667 34.8958 19.7917ZM31.7708 25 23.6979 25 23.6979 22.9167 31.7708 22.9167 31.7708 25ZM37.5 4.16667 15.625 4.27083 15.625 45.8333 37.5 45.8333C38.6458 45.8333 39.5833 44.8958 39.5833 43.75L39.5833 6.25C39.5833 5.10417 38.6458 4.16667 37.5 4.16667Z" fill="#FFFFFF" transform="matrix(1.02 0 0 1 1162 136)"/></g></g></g><g filter="url(#fx2)" transform="translate(48 230)"><g><path d="M7 24.5934C7 14.8768 14.8768 7 24.5934 7L317.407 7C327.123 7 335 14.8768 335 24.5934L335 156.407C335 166.123 327.123 174 317.407 174L24.5934 174C14.8768 174 7 166.123 7 156.407Z" fill="#FFFFFF" fill-rule="evenodd"/></g></g><path d="M55 250.593C55 240.877 62.8768 233 72.5934 233L365.407 233C375.123 233 383 240.877 383 250.593L383 382.407C383 392.123 375.123 400 365.407 400L72.5934 400C62.8768 400 55 392.123 55 382.407Z" fill="#FFFFFF" fill-rule="evenodd"/><g filter="url(#fx3)" transform="translate(951 230)"><g><path d="M7 24.5936C7 14.8769 14.8769 7 24.5936 7L256.406 7C266.123 7 274 14.8769 274 24.5936L274 156.406C274 166.123 266.123 174 256.406 174L24.5936 174C14.8769 174 7 166.123 7 156.406Z" fill="#FFFFFF" fill-rule="evenodd"/></g></g><path d="M958 250.594C958 240.877 965.877 233 975.594 233L1207.41 233C1217.12 233 1225 240.877 1225 250.594L1225 382.406C1225 392.123 1217.12 400 1207.41 400L975.594 400C965.877 400 958 392.123 958 382.406Z" fill="#FFFFFF" fill-rule="evenodd"/><g filter="url(#fx4)" transform="translate(670 230)"><g><path d="M7 24.5935C7 14.8769 14.8769 7 24.5935 7L257.406 7C267.123 7 275 14.8769 275 24.5935L275 156.406C275 166.123 267.123 174 257.406 174L24.5935 174C14.8769 174 7 166.123 7 156.406Z" fill="#FFFFFF" fill-rule="evenodd"/></g></g><path d="M677 250.594C677 240.877 684.877 233 694.594 233L927.406 233C937.123 233 945 240.877 945 250.594L945 382.406C945 392.123 937.123 400 927.406 400L694.594 400C684.877 400 677 392.123 677 382.406Z" fill="#FFFFFF" fill-rule="evenodd"/><g filter="url(#fx5)" transform="translate(390 230)"><g><path d="M7 24.5936C7 14.8769 14.8769 7 24.5936 7L256.406 7C266.123 7 274 14.8769 274 24.5936L274 156.406C274 166.123 266.123 174 256.406 174L24.5936 174C14.8769 174 7 166.123 7 156.406Z" fill="#FFFFFF" fill-rule="evenodd"/></g></g><path d="M397 250.594C397 240.877 404.877 233 414.594 233L646.406 233C656.123 233 664 240.877 664 250.594L664 382.406C664 392.123 656.123 400 646.406 400L414.594 400C404.877 400 397 392.123 397 382.406Z" fill="#FFFFFF" fill-rule="evenodd"/><g filter="url(#fx6)" transform="translate(48 416)"><g><path d="M7 32.4949C7 18.4145 18.4145 7 32.4949 7L484.505 7C498.586 7 510 18.4145 510 32.4949L510 223.505C510 237.586 498.586 249 484.505 249L32.4949 249C18.4145 249 7 237.586 7 223.505Z" fill="#FFFFFF" fill-rule="evenodd"/></g></g><path d="M55 444.495C55 430.414 66.4145 419 80.4949 419L532.505 419C546.586 419 558 430.414 558 444.495L558 635.505C558 649.586 546.586 661 532.505 661L80.4949 661C66.4145 661 55 649.586 55 635.505Z" fill="#FFFFFF" fill-rule="evenodd"/><g filter="url(#fx7)" transform="translate(571 416)"><g><path d="M7 32.4944C7 18.4142 18.4142 7 32.4944 7L628.506 7C642.586 7 654 18.4142 654 32.4944L654 223.506C654 237.586 642.586 249 628.506 249L32.4944 249C18.4142 249 7 237.586 7 223.506Z" fill="#FFFFFF" fill-rule="evenodd"/></g></g><path d="M578 444.494C578 430.414 589.414 419 603.494 419L1199.51 419C1213.59 419 1225 430.414 1225 444.494L1225 635.506C1225 649.586 1213.59 661 1199.51 661L603.494 661C589.414 661 578 649.586 578 635.506Z" fill="#FFFFFF" fill-rule="evenodd"/><rect x="61" y="102" width="1153" height="1" fill="#072C62" fill-opacity="0.14902"/></g></svg>